<svg xmlns="http://www.w3.org/2000/svg" viewBox="0 0 512 512">
  <defs>
    <linearGradient id="grad" x1="0%" y1="0%" x2="100%" y2="100%">
      <stop offset="0%" style="stop-color:#2563eb;stop-opacity:1" />
      <stop offset="100%" style="stop-color:#4f46e5;stop-opacity:1" />
    </linearGradient>
  </defs>
  <rect width="512" height="512" rx="100" fill="url(#grad)"/>
  <path d="M360 216h-40v40h40c22.1 0 40-17.9 40-40s-17.9-40-40-40zM268 296l-48 48c-8.8 8.8-23.2 8.8-32 0l-48-48c-8.8-8.8-8.8-23.2 0-32l48-48c8.8-8.8 23.2-8.8 32 0l7.5 7.5c2.5 2.5 6.4 2.7 9.1.5l25.8-21.3c2.9-2.4 3.1-6.8.5-9.4l-11.2-11.2c-29.3-29.3-76.8-29.3-106.1 0l-48 48c-29.3 29.3-29.3 76.8 0 106.1l48 48c29.3 29.3 76.8 29.3 106.1 0l48-48c29.3-29.3 29.3-76.8 0-106.1l-11.2-11.2c-2.6-2.6-7-2.4-9.4.5l-21.3 25.8c-2.2 2.7-2 6.6.5 9.1l7.5 7.5c8.8 8.8 8.8 23.2 0 32z" fill="white" stroke="white" stroke-width="20"/>
</svg>
